<?xml version="1.0" encoding="UTF-8"?>
<!DOCTYPE svg PUBLIC "-//W3C//DTD SVG 1.1//EN" "http://www.w3.org/Graphics/SVG/1.1/DTD/svg11.dtd">
<svg xmlns="http://www.w3.org/2000/svg" version="1.1" width="400px" height="385px" style="shape-rendering:geometricPrecision; text-rendering:geometricPrecision; image-rendering:optimizeQuality; fill-rule:evenodd; clip-rule:evenodd" xmlns:xlink="http://www.w3.org/1999/xlink">
<g><path style="opacity:1" fill="#151515" d="M -0.5,-0.5 C 132.833,-0.5 266.167,-0.5 399.5,-0.5C 399.5,127.833 399.5,256.167 399.5,384.5C 266.167,384.5 132.833,384.5 -0.5,384.5C -0.5,256.167 -0.5,127.833 -0.5,-0.5 Z"/></g>
<g><path style="opacity:1" fill="#fefefe" d="M 59.5,113.5 C 59.5,119.5 59.5,125.5 59.5,131.5C 65.5,131.5 71.5,131.5 77.5,131.5C 77.5,137.167 77.5,142.833 77.5,148.5C 83.1667,148.5 88.8333,148.5 94.5,148.5C 94.5,154.5 94.5,160.5 94.5,166.5C 106.345,166.828 118.012,166.495 129.5,165.5C 129.5,159.833 129.5,154.167 129.5,148.5C 135.5,148.5 141.5,148.5 147.5,148.5C 147.5,142.833 147.5,137.167 147.5,131.5C 153.167,131.5 158.833,131.5 164.5,131.5C 164.5,125.5 164.5,119.5 164.5,113.5C 170.5,113.5 176.5,113.5 182.5,113.5C 182.5,160.167 182.5,206.833 182.5,253.5C 170.833,253.5 159.167,253.5 147.5,253.5C 147.5,236.167 147.5,218.833 147.5,201.5C 141.833,201.5 136.167,201.5 130.5,201.5C 129.511,206.975 129.178,212.642 129.5,218.5C 117.833,218.5 106.167,218.5 94.5,218.5C 94.5,212.833 94.5,207.167 94.5,201.5C 88.8333,201.5 83.1667,201.5 77.5,201.5C 77.5,218.833 77.5,236.167 77.5,253.5C 65.8333,253.5 54.1667,253.5 42.5,253.5C 42.5,206.833 42.5,160.167 42.5,113.5C 48.1667,113.5 53.8333,113.5 59.5,113.5 Z"/></g>
<g><path style="opacity:1" fill="#cfcfcf" d="M 346.5,131.5 C 346.5,125.833 346.5,120.167 346.5,114.5C 300.167,114.5 253.833,114.5 207.5,114.5C 207.5,184.167 207.5,253.833 207.5,323.5C 213.167,323.5 218.833,323.5 224.5,323.5C 218.69,324.49 212.69,324.823 206.5,324.5C 206.5,254.167 206.5,183.833 206.5,113.5C 253.5,113.5 300.5,113.5 347.5,113.5C 347.823,119.69 347.49,125.69 346.5,131.5 Z"/></g>
<g><path style="opacity:1" fill="#fefefe" d="M 346.5,131.5 C 340.833,131.5 335.167,131.5 329.5,131.5C 329.5,137.5 329.5,143.5 329.5,149.5C 323.833,149.5 318.167,149.5 312.5,149.5C 311.511,154.975 311.178,160.642 311.5,166.5C 329.167,166.5 346.833,166.5 364.5,166.5C 364.5,172.5 364.5,178.5 364.5,184.5C 358.833,184.5 353.167,184.5 347.5,184.5C 346.512,189.64 346.179,194.974 346.5,200.5C 340.642,200.178 334.975,200.511 329.5,201.5C 329.5,207.167 329.5,212.833 329.5,218.5C 323.5,218.5 317.5,218.5 311.5,218.5C 311.5,224.5 311.5,230.5 311.5,236.5C 305.833,236.5 300.167,236.5 294.5,236.5C 294.5,242.167 294.5,247.833 294.5,253.5C 288.5,253.5 282.5,253.5 276.5,253.5C 276.5,259.5 276.5,265.5 276.5,271.5C 270.833,271.5 265.167,271.5 259.5,271.5C 259.5,277.167 259.5,282.833 259.5,288.5C 253.5,288.5 247.5,288.5 241.5,288.5C 241.5,294.5 241.5,300.5 241.5,306.5C 235.833,306.5 230.167,306.5 224.5,306.5C 224.5,312.167 224.5,317.833 224.5,323.5C 218.833,323.5 213.167,323.5 207.5,323.5C 207.5,253.833 207.5,184.167 207.5,114.5C 253.833,114.5 300.167,114.5 346.5,114.5C 346.5,120.167 346.5,125.833 346.5,131.5 Z"/></g>
<g><path style="opacity:1" fill="#808080" d="M 59.5,113.5 C 60.4889,118.975 60.8222,124.642 60.5,130.5C 66.358,130.178 72.0247,130.511 77.5,131.5C 71.5,131.5 65.5,131.5 59.5,131.5C 59.5,125.5 59.5,119.5 59.5,113.5 Z"/></g>
<g><path style="opacity:1" fill="#858585" d="M 242.5,149.5 C 247.975,148.511 253.642,148.178 259.5,148.5C 259.5,154.5 259.5,160.5 259.5,166.5C 253.5,166.5 247.5,166.5 241.5,166.5C 241.178,160.642 241.511,154.975 242.5,149.5 Z"/></g>
<g><path style="opacity:1" fill="#141514" d="M 242.5,149.5 C 247.833,149.5 253.167,149.5 258.5,149.5C 258.5,154.833 258.5,160.167 258.5,165.5C 253.167,165.5 247.833,165.5 242.5,165.5C 242.5,160.167 242.5,154.833 242.5,149.5 Z"/></g>
<g><path style="opacity:1" fill="#7c7c7c" d="M 94.5,148.5 C 95.4889,153.975 95.8222,159.642 95.5,165.5C 106.833,165.5 118.167,165.5 129.5,165.5C 118.012,166.495 106.345,166.828 94.5,166.5C 94.5,160.5 94.5,154.5 94.5,148.5 Z"/></g>
<g><path style="opacity:1" fill="#797979" d="M 312.5,149.5 C 312.5,154.833 312.5,160.167 312.5,165.5C 330.008,165.17 347.341,165.503 364.5,166.5C 346.833,166.5 329.167,166.5 311.5,166.5C 311.178,160.642 311.511,154.975 312.5,149.5 Z"/></g>
<g><path style="opacity:1" fill="#c5c5c5" d="M 347.5,184.5 C 347.5,190.167 347.5,195.833 347.5,201.5C 341.5,201.5 335.5,201.5 329.5,201.5C 334.975,200.511 340.642,200.178 346.5,200.5C 346.179,194.974 346.512,189.64 347.5,184.5 Z"/></g>
<g><path style="opacity:1" fill="#141514" d="M 259.5,218.5 C 258.511,223.975 258.178,229.642 258.5,235.5C 253.167,235.5 247.833,235.5 242.5,235.5C 242.5,224.167 242.5,212.833 242.5,201.5C 253.833,201.5 265.167,201.5 276.5,201.5C 276.5,207.167 276.5,212.833 276.5,218.5C 270.833,218.5 265.167,218.5 259.5,218.5 Z"/></g>
<g><path style="opacity:1" fill="#7a7a7a" d="M 130.5,201.5 C 130.5,207.5 130.5,213.5 130.5,219.5C 118.322,219.828 106.322,219.495 94.5,218.5C 106.167,218.5 117.833,218.5 129.5,218.5C 129.178,212.642 129.511,206.975 130.5,201.5 Z"/></g>
<g><path style="opacity:1" fill="#939393" d="M 329.5,218.5 C 324.025,219.489 318.358,219.822 312.5,219.5C 312.822,225.358 312.489,231.025 311.5,236.5C 311.5,230.5 311.5,224.5 311.5,218.5C 317.5,218.5 323.5,218.5 329.5,218.5 Z"/></g>
<g><path style="opacity:1" fill="#949494" d="M 259.5,218.5 C 259.5,224.5 259.5,230.5 259.5,236.5C 253.642,236.822 247.975,236.489 242.5,235.5C 247.833,235.5 253.167,235.5 258.5,235.5C 258.178,229.642 258.511,223.975 259.5,218.5 Z"/></g>
<g><path style="opacity:1" fill="#939393" d="M 294.5,253.5 C 289.025,254.489 283.358,254.822 277.5,254.5C 277.822,260.358 277.489,266.025 276.5,271.5C 276.5,265.5 276.5,259.5 276.5,253.5C 282.5,253.5 288.5,253.5 294.5,253.5 Z"/></g>
<g><path style="opacity:1" fill="#939393" d="M 259.5,288.5 C 254.025,289.489 248.358,289.822 242.5,289.5C 242.822,295.358 242.489,301.025 241.5,306.5C 241.5,300.5 241.5,294.5 241.5,288.5C 247.5,288.5 253.5,288.5 259.5,288.5 Z"/></g>
</svg>
