<?xml version="1.0" encoding="UTF-8"?>
<!DOCTYPE svg PUBLIC "-//W3C//DTD SVG 1.1//EN" "http://www.w3.org/Graphics/SVG/1.1/DTD/svg11.dtd">
<svg xmlns="http://www.w3.org/2000/svg" version="1.1" width="465px" height="141px" style="shape-rendering:geometricPrecision; text-rendering:geometricPrecision; image-rendering:optimizeQuality; fill-rule:evenodd; clip-rule:evenodd" xmlns:xlink="http://www.w3.org/1999/xlink">
<g><path style="opacity:1" fill="#59646e" d="M 150.5,52.5 C 151.167,52.8333 151.833,53.1667 152.5,53.5C 149.524,61.9796 148.857,70.6463 150.5,79.5C 150.167,80.8333 149.833,82.1667 149.5,83.5C 149.5,95.8333 149.5,108.167 149.5,120.5C 148.5,120.5 147.5,120.5 146.5,120.5C 146.333,93.1646 146.5,65.8313 147,38.5C 147.414,38.0426 147.914,37.7093 148.5,37.5C 149.12,43.229 149.786,48.229 150.5,52.5 Z"/></g>
<g><path style="opacity:1" fill="#58636d" d="M 216.5,50.5 C 217.338,50.8417 217.672,51.5084 217.5,52.5C 215.638,68.0799 214.972,83.7465 215.5,99.5C 214.5,99.5 213.5,99.5 212.5,99.5C 212.333,79.1639 212.5,58.8306 213,38.5C 213.414,38.0426 213.914,37.7093 214.5,37.5C 215.112,42.5632 215.779,46.8965 216.5,50.5 Z"/></g>
<g><path style="opacity:1" fill="#5b6570" d="M 217.5,52.5 C 217.672,51.5084 217.338,50.8417 216.5,50.5C 221.011,39.9085 229.011,35.5751 240.5,37.5C 240.291,38.086 239.957,38.586 239.5,39C 229.161,38.8774 221.828,43.3774 217.5,52.5 Z"/></g>
<g><path style="opacity:1" fill="#59636e" d="M 149.5,83.5 C 149.833,82.1667 150.167,80.8333 150.5,79.5C 157.065,96.7567 169.065,101.923 186.5,95C 194.441,88.0315 198.441,79.1982 198.5,68.5C 197.171,44.6311 185.171,35.7977 162.5,42C 158.106,44.9835 154.773,48.8168 152.5,53.5C 151.833,53.1667 151.167,52.8333 150.5,52.5C 159.555,35.8745 172.555,32.0412 189.5,41C 199.426,51.1857 202.926,63.3524 200,77.5C 193.687,99.2414 180.187,105.741 159.5,97C 154.731,93.4205 151.397,88.9205 149.5,83.5 Z"/></g>
<g><path style="opacity:1" fill="#5a656f" d="M 321.5,36.5 C 329.185,35.7357 336.519,36.9024 343.5,40C 349.184,44.2216 351.184,49.7216 349.5,56.5C 348.914,56.2907 348.414,55.9574 348,55.5C 346.792,43.7971 340.292,38.4637 328.5,39.5C 314.387,38.7623 308.887,45.0956 312,58.5C 313.167,59.6667 314.333,60.8333 315.5,62C 325.999,64.8735 336.332,68.2069 346.5,72C 352.969,77.8649 354.136,84.6983 350,92.5C 344.639,98.3982 337.973,101.398 330,101.5C 314.689,101.943 306.189,94.6095 304.5,79.5C 305.325,78.6143 306.325,78.281 307.5,78.5C 307.96,89.6099 313.627,96.1099 324.5,98C 330.293,98.5353 335.959,97.8686 341.5,96C 348.474,92.551 350.974,87.051 349,79.5C 347.878,77.3762 346.378,75.5429 344.5,74C 334.891,70.8472 325.225,67.8472 315.5,65C 310.223,62.5472 307.556,58.3805 307.5,52.5C 308.288,43.7152 312.955,38.3818 321.5,36.5 Z"/></g>
<g><path style="opacity:1" fill="#5a656f" d="M 379.5,36.5 C 387.185,35.7357 394.519,36.9024 401.5,40C 407.184,44.2216 409.184,49.7216 407.5,56.5C 406.914,56.2907 406.414,55.9574 406,55.5C 404.792,43.7971 398.292,38.4637 386.5,39.5C 372.387,38.7623 366.887,45.0956 370,58.5C 371.167,59.6667 372.333,60.8333 373.5,62C 383.999,64.8735 394.332,68.2069 404.5,72C 410.969,77.8649 412.136,84.6983 408,92.5C 402.639,98.3982 395.973,101.398 388,101.5C 372.689,101.943 364.189,94.6095 362.5,79.5C 363.325,78.6143 364.325,78.281 365.5,78.5C 365.96,89.6099 371.627,96.1099 382.5,98C 388.293,98.5353 393.959,97.8686 399.5,96C 406.474,92.551 408.974,87.051 407,79.5C 405.878,77.3762 404.378,75.5429 402.5,74C 392.891,70.8472 383.225,67.8472 373.5,65C 368.223,62.5472 365.556,58.3805 365.5,52.5C 366.288,43.7152 370.955,38.3818 379.5,36.5 Z"/></g>
<g><path style="opacity:1" fill="#56616b" d="M 84.5,68.5 C 67.1667,68.5 49.8333,68.5 32.5,68.5C 32.2155,70.4147 32.5489,72.0813 33.5,73.5C 35.6972,93.6042 46.6972,101.438 66.5,97C 75.2864,93.2237 80.6198,86.7237 82.5,77.5C 83.4795,86.0669 80.1462,92.5669 72.5,97C 62.9632,102.285 53.2965,102.619 43.5,98C 34.1728,90.7243 29.8395,81.0576 30.5,69C 30.959,46.536 42.2924,35.8693 64.5,37C 78.8143,42.4287 85.481,52.9287 84.5,68.5 Z M 81.5,62.5 C 81.5,63.8333 81.5,65.1667 81.5,66.5C 65.5,66.5 49.5,66.5 33.5,66.5C 33.5,65.5 33.5,64.5 33.5,63.5C 38.1055,41.6975 50.7722,34.8642 71.5,43C 77.6119,48.0567 80.9452,54.5567 81.5,62.5 Z"/></g>
<g><path style="opacity:1" fill="#56616b" d="M 296.5,68.5 C 279.167,68.5 261.833,68.5 244.5,68.5C 244.216,70.4147 244.549,72.0813 245.5,73.5C 247.697,93.6042 258.697,101.438 278.5,97C 287.286,93.2237 292.62,86.7237 294.5,77.5C 295.48,86.0669 292.146,92.5669 284.5,97C 274.963,102.285 265.297,102.619 255.5,98C 246.173,90.7243 241.84,81.0576 242.5,69C 242.959,46.536 254.292,35.8693 276.5,37C 290.814,42.4287 297.481,52.9287 296.5,68.5 Z M 293.5,62.5 C 293.5,63.8333 293.5,65.1667 293.5,66.5C 277.5,66.5 261.5,66.5 245.5,66.5C 245.5,65.5 245.5,64.5 245.5,63.5C 250.106,41.6975 262.772,34.8642 283.5,43C 289.612,48.0567 292.945,54.5567 293.5,62.5 Z"/></g>
<g><path style="opacity:1" fill="#58636d" d="M 90.5,37.5 C 91.8221,37.33 92.9887,37.6634 94,38.5C 100.423,47.6782 107.089,56.6782 114,65.5C 120.911,56.6782 127.577,47.6782 134,38.5C 135.183,37.269 136.349,37.269 137.5,38.5C 129.974,48.1922 122.641,58.0255 115.5,68C 123.691,78.0231 131.691,88.1898 139.5,98.5C 137.741,99.754 136.241,99.4206 135,97.5C 128,88.1667 121,78.8333 114,69.5C 106.424,78.9871 99.0905,88.6538 92,98.5C 90.6124,99.5536 89.1124,99.7203 87.5,99C 95.8965,88.9414 103.896,78.6081 111.5,68C 104.609,57.7055 97.6095,47.5388 90.5,37.5 Z"/></g>
<g><path style="opacity:1" fill="#6c767f" d="M 81.5,62.5 C 82.4511,63.9187 82.7845,65.5853 82.5,67.5C 65.8333,67.5 49.1667,67.5 32.5,67.5C 32.2322,65.901 32.5655,64.5676 33.5,63.5C 33.5,64.5 33.5,65.5 33.5,66.5C 49.5,66.5 65.5,66.5 81.5,66.5C 81.5,65.1667 81.5,63.8333 81.5,62.5 Z"/></g>
<g><path style="opacity:1" fill="#6c767f" d="M 293.5,62.5 C 294.451,63.9187 294.784,65.5853 294.5,67.5C 277.833,67.5 261.167,67.5 244.5,67.5C 244.232,65.901 244.566,64.5676 245.5,63.5C 245.5,64.5 245.5,65.5 245.5,66.5C 261.5,66.5 277.5,66.5 293.5,66.5C 293.5,65.1667 293.5,63.8333 293.5,62.5 Z"/></g>
<g><path style="opacity:1" fill="#818a91" d="M 84.5,68.5 C 67.6749,69.4966 50.6749,69.8299 33.5,69.5C 33.5,70.8333 33.5,72.1667 33.5,73.5C 32.5489,72.0813 32.2155,70.4147 32.5,68.5C 49.8333,68.5 67.1667,68.5 84.5,68.5 Z"/></g>
<g><path style="opacity:1" fill="#818a91" d="M 296.5,68.5 C 279.675,69.4966 262.675,69.8299 245.5,69.5C 245.5,70.8333 245.5,72.1667 245.5,73.5C 244.549,72.0813 244.216,70.4147 244.5,68.5C 261.833,68.5 279.167,68.5 296.5,68.5 Z"/></g>
</svg>
